# xmcd
#
# Track frame offsets:
#	182
#	15522
#	35437
#	53815
#
# Disc length: 1085 seconds
#
# Revision: 0
# Processed by: cddbd v1.5.1PL0 Copyright (c) Steve Scherf et al.
# Submitted via: EasyCDDAExtractor 8.0.1.1
#
DISCID=26043b04
DTITLE=E-Rotic - Don't make me wet
DYEAR=1900
DGENRE=
TTITLE0=don't make me wet
TTITLE1=hearts are a changing
TTITLE2=don't go
TTITLE3=don't make me wet - extended version
EXTD=
EXTT0=
EXTT1=
EXTT2=
EXTT3=
PLAYORDER=
